<svg xmlns="http://www.w3.org/2000/svg" viewBox="0 0 196.83 117.64">
    <defs>
        <style>
            .SpeechBubble  {
                fill:none;
                stroke:#000;
                stroke-miterlimit:10;
                stroke-width:2px;
            }
        </style>
    </defs>
    <g class="SpeechBubble">
        <path d="M160.84,99.5c.79,5.74,1.47,10.62,2.3,16.63-4.21-4.58-8.06-8.39-11.46-12.57a10.18,10.18,0,0,0-8.82-4.16c-43.14.16-86.28.1-129.42.1C4,99.5.52,96.05.51,86.56q0-36.72,0-73.45C.53,4,4.05.5,13.25.5H183.64c9.18,0,12.67,3.49,12.68,12.67q0,36.73,0,73.46c0,9.41-3.53,12.86-13,12.87C176.16,99.51,169,99.5,160.84,99.5Z"/>
    </g>
</svg>